<svg width="54" height="54" viewBox="0 0 54 54" fill="none" xmlns="http://www.w3.org/2000/svg">
<path d="M27.3462 0.333344C12.7677 0.333344 0.935898 12.28 0.935898 27C0.935898 41.72 12.7677 53.6667 27.3462 53.6667C41.9246 53.6667 53.7564 41.72 53.7564 27C53.7564 12.28 41.9246 0.333344 27.3462 0.333344ZM29.9872 45.6667H24.7051V40.3333H29.9872V45.6667ZM35.4541 25L33.0772 27.4533C31.7567 28.8133 30.8059 30.04 30.3305 31.96C30.1192 32.8133 29.9872 33.7733 29.9872 35H24.7051V33.6667C24.7051 32.44 24.9164 31.2667 25.2862 30.1733C25.8144 28.6267 26.6859 27.24 27.7951 26.12L31.07 22.76C32.2849 21.5867 32.8659 19.8267 32.5226 17.96C32.1792 16.04 30.7003 14.4133 28.8515 13.88C25.92 13.0533 23.1997 14.7333 22.3282 17.2667C22.0113 18.2533 21.1926 19 20.1626 19H19.3703C17.8385 19 16.7821 17.5067 17.2046 16.0133C18.3403 12.0933 21.6415 9.10668 25.7351 8.46668C29.7495 7.82668 33.579 9.93334 35.9559 13.2667C39.0723 17.6133 38.1479 22.28 35.4541 25Z" fill="#084298"/>
</svg>
