<svg width="54" height="54" viewBox="0 0 54 54" fill="none" xmlns="http://www.w3.org/2000/svg">
<path d="M27 0.333334C12.28 0.333334 0.333328 12.28 0.333328 27C0.333328 41.72 12.28 53.6667 27 53.6667C41.72 53.6667 53.6667 41.72 53.6667 27C53.6667 12.28 41.72 0.333334 27 0.333334ZM19.7733 38.44L10.2 28.8667C9.16 27.8267 9.16 26.1467 10.2 25.1067C11.24 24.0667 12.92 24.0667 13.96 25.1067L21.6667 32.7867L40.0133 14.44C41.0533 13.4 42.7333 13.4 43.7733 14.44C44.8133 15.48 44.8133 17.16 43.7733 18.2L23.5333 38.44C22.52 39.48 20.8133 39.48 19.7733 38.44Z" fill="#20C997"/>
</svg>
