<svg width="24" height="24" viewBox="0 0 24 24" fill="none" xmlns="http://www.w3.org/2000/svg">
<path d="M12 15C13.6569 15 15 13.6569 15 12C15 10.3431 13.6569 9 12 9C10.3431 9 9 10.3431 9 12C9 13.6569 10.3431 15 12 15Z" fill="#42A490"/>
<path d="M23.0082 11.1844C21.7679 9.26625 20.1587 7.63688 18.3549 6.47203C16.3595 5.18203 14.1563 4.5 11.9841 4.5C9.99102 4.5 8.03117 5.06953 6.15899 6.19266C4.24977 7.33781 2.52008 9.01078 1.01774 11.1647C0.848136 11.4081 0.75473 11.6965 0.749388 11.9931C0.744046 12.2897 0.82701 12.5813 0.987737 12.8306C2.22571 14.768 3.81899 16.3997 5.59461 17.5486C7.59383 18.8438 9.74539 19.5 11.9841 19.5C14.1737 19.5 16.3815 18.8236 18.3685 17.5444C20.1713 16.3833 21.7773 14.7478 23.0129 12.8137C23.1681 12.5702 23.2501 12.2872 23.2493 11.9984C23.2485 11.7096 23.1648 11.4271 23.0082 11.1844ZM12.0001 16.5C11.1101 16.5 10.24 16.2361 9.50001 15.7416C8.75999 15.2471 8.18322 14.5443 7.84262 13.7221C7.50203 12.8998 7.41291 11.995 7.58655 11.1221C7.76018 10.2492 8.18876 9.44736 8.8181 8.81802C9.44744 8.18868 10.2493 7.7601 11.1222 7.58647C11.9951 7.41283 12.8999 7.50195 13.7222 7.84254C14.5444 8.18314 15.2472 8.75991 15.7417 9.49993C16.2362 10.24 16.5001 11.11 16.5001 12C16.4987 13.1931 16.0242 14.3369 15.1806 15.1805C14.3369 16.0241 13.1931 16.4986 12.0001 16.5Z" fill="#42A490"/>
</svg>
