<svg width="24" height="18" viewBox="0 0 24 18" fill="none" xmlns="http://www.w3.org/2000/svg">
<path d="M23.8425 3.97453C23.8425 1.86516 22.2909 0.168281 20.3738 0.168281C17.7769 0.0468748 15.1284 0 12.4219 0H11.5781C8.87814 0 6.22501 0.0468749 3.62814 0.16875C1.71564 0.16875 0.164073 1.875 0.164073 3.98437C0.0468854 5.65266 -0.00280211 7.32141 1.03924e-05 8.99016C-0.00467711 10.6589 0.0484479 12.3292 0.159385 14.0011C0.159385 16.1105 1.71095 17.8214 3.62345 17.8214C6.35157 17.948 9.15001 18.0042 11.9953 17.9995C14.8453 18.0089 17.6359 17.9495 20.3672 17.8214C22.2844 17.8214 23.8359 16.1105 23.8359 14.0011C23.9484 12.3277 24 10.6589 23.9953 8.98547C24.0059 7.31672 23.955 5.64641 23.8425 3.97453ZM9.70314 13.5886V4.37766L16.5 8.98078L9.70314 13.5886Z" fill="#17464E"/>
</svg>
